<svg width="363" height="470" viewBox="0 0 363 470" fill="none" xmlns="http://www.w3.org/2000/svg">
<circle cx="43.8551" cy="42.8543" r="41.8543" stroke="#BBFFF3" stroke-width="2"/>
<circle cx="319.064" cy="42.8543" r="41.8543" stroke="#BBFFF3" stroke-width="2"/>
<rect x="97.0736" width="168.183" height="85.7086" rx="42.8218" fill="#EBD1FF"/>
<circle cx="319.064" cy="138.927" r="41.8543" stroke="#BBFFF3" stroke-width="2"/>
<circle cx="222.991" cy="138.927" r="41.8543" stroke="#BBFFF3" stroke-width="2"/>
<rect x="2.00152" y="96.0728" width="168.183" height="85.7086" rx="42.8218" fill="#EBD1FF"/>
<circle cx="140.929" cy="235" r="41.8543" stroke="#BBFFF3" stroke-width="2"/>
<circle cx="44.8558" cy="235" r="41.8543" stroke="#BBFFF3" stroke-width="2"/>
<rect x="194.147" y="192.146" width="168.183" height="85.7086" rx="42.8218" fill="#EBD1FF"/>
<path d="M360.917 322.066C360.917 345.181 342.179 363.92 319.064 363.92C295.949 363.92 277.21 345.181 277.21 322.066C277.21 298.951 295.949 280.212 319.064 280.212C342.179 280.212 360.917 298.951 360.917 322.066Z" stroke="#BBFFF3" stroke-width="2"/>
<circle cx="44.8558" cy="329.071" r="41.8543" stroke="#BBFFF3" stroke-width="2"/>
<rect x="98.0744" y="286.217" width="168.183" height="85.7086" rx="42.8218" fill="#EBD1FF"/>
<circle cx="139.928" cy="427.146" r="41.8543" stroke="#BBFFF3" stroke-width="2"/>
<circle cx="42.8543" cy="427.146" r="41.8543" stroke="#BBFFF3" stroke-width="2"/>
<rect x="194.147" y="382.29" width="168.183" height="85.7086" rx="42.8218" fill="#EBD1FF"/>
</svg>
